PathFileType	4	(X/Y/Z)	c:/Users/goper/Files/vsCode/490R/osim_files/A06/A06_Slow_06.trc
DataRate	CameraRate	NumFrames	NumMarkers	Units                	OrigDataRate	OrigDataStartFrame	OrigNumFrames
120.00	120.00	10	36	mm	120.0	451	1202
                Frame#	Time	LPSIS			LASIS			LTH1			LTH2			LTH3			LTH4			LLFE			LMFE			LSH1			LSH2			LSH3			LSH4			LLMAL			LMMAL			LCAL			LMTP5			LTOE			LMTP1			RPSIS			RASIS			RTH1			RTH2			RTH3			RTH4			RLFE			RMFE			RSH1			RSH2			RSH3			RSH4			RLMAL			RMMAL			RCAL			RMTP1			RTOE			RMTP5		
		X1	Y1	Z1	X2	Y2	Z2	X3	Y3	Z3	X4	Y4	Z4	X5	Y5	Z5	X6	Y6	Z6	X7	Y7	Z7	X8	Y8	Z8	X9	Y9	Z9	X10	Y10	Z10	X11	Y11	Z11	X12	Y12	Z12	X13	Y13	Z13	X14	Y14	Z14	X15	Y15	Z15	X16	Y16	Z16	X17	Y17	Z17	X18	Y18	Z18	X19	Y19	Z19	X20	Y20	Z20	X21	Y21	Z21	X22	Y22	Z22	X23	Y23	Z23	X24	Y24	Z24	X25	Y25	Z25	X26	Y26	Z26	X27	Y27	Z27	X28	Y28	Z28	X29	Y29	Z29	X30	Y30	Z30	X31	Y31	Z31	X32	Y32	Z32	X33	Y33	Z33	X34	Y34	Z34	X35	Y35	Z35	X36	Y36	Z36

451	3.75000	378.66220	980.37482	427.04980	183.84413	926.25867	476.54666	327.71622	581.00946	507.51712	330.03918	539.11945	500.77835	267.27216	569.13763	489.07257	280.96402	528.75073	485.48129	330.75171	463.70505	482.24088	335.53104	460.12521	371.66574	412.76602	386.60675	497.09113	417.15543	340.33340	502.26297	352.00467	372.66980	489.31747	364.25436	332.64566	490.87448	474.13037	88.94608	455.53299	455.64548	105.53464	371.95917	542.00818	84.61055	404.96115	361.59940	40.85130	471.12204	321.93674	60.25315	414.11777	346.06021	54.98256	375.54401	391.40881	1000.84668	298.06888	223.66385	978.06232	225.89531	209.24004	590.17755	180.10193	186.31691	554.75446	179.24643	152.94962	616.98010	187.47952	137.12311	574.76489	183.41071	116.99068	459.47781	200.85573	113.07889	458.45670	290.12546	78.68670	306.76346	210.07324	60.12756	262.71619	210.60120	21.46513	324.86627	219.08325	10.24485	277.91666	214.36005	11.63553	133.21582	196.10207	-2.18060	139.50323	281.28146	53.43781	90.59528	245.83528	-141.40193	150.01109	268.73587	-149.17587	167.27100	227.91110	-128.69714	142.51540	180.20335
452	3.75833	370.86084	978.67480	426.75967	175.64462	924.99866	475.43237	322.48239	580.55811	506.76794	325.11206	538.70349	500.08401	261.84882	568.18158	488.78809	276.07419	527.89386	485.12372	326.21030	463.17612	481.74603	330.71075	459.58798	371.09473	409.03879	386.92596	496.60559	413.99927	340.76480	501.87219	348.34766	372.43973	488.95648	361.11493	333.00858	491.11981	473.63263	89.45584	455.53494	455.11389	106.08723	372.02911	541.84131	85.61749	405.15680	361.38901	40.69262	471.18301	321.94839	60.05030	414.30661	345.78964	54.86290	375.61060	383.75040	998.82190	297.85669	214.67070	976.90015	224.95996	200.34645	588.74774	180.12054	176.51537	553.37549	179.38794	144.57454	614.89014	188.17328	127.97867	573.60162	183.05664	106.69667	458.50854	200.81740	102.39288	457.84534	290.06332	67.17267	306.19943	210.40338	48.25751	262.26944	211.02277	9.82726	325.02548	218.97072	-1.43050	277.90283	214.51073	-1.12050	133.15733	196.75427	-15.37197	139.84360	281.85648	39.96755	90.31465	246.89313	-154.56258	151.38805	268.55978	-161.96783	168.57364	227.62921	-141.19524	143.15987	180.45276
453	3.76667	362.88367	976.97412	426.37497	167.38597	923.60559	474.33295	318.75024	581.10651	506.65884	320.08841	538.26691	499.38803	256.53922	567.24628	488.55942	270.98486	527.04169	484.85040	321.71533	462.66922	481.35168	325.78873	458.98309	370.61783	405.19632	387.33841	496.17767	410.68781	341.22821	501.45169	344.67578	372.14136	488.50983	357.90274	332.80325	490.76224	472.96750	90.15798	455.63452	454.41873	106.67715	372.07190	541.30591	86.65802	405.36252	361.23306	40.52434	471.26651	321.50681	59.58512	414.04523	347.54166	56.33995	374.34888	375.94067	996.81073	297.52036	208.83163	974.82294	223.62376	186.83366	584.92560	178.70433	167.09215	551.85431	179.25308	135.28365	613.00433	188.17960	118.49610	572.34131	182.80479	96.74149	457.40503	200.90692	92.17992	457.08395	289.99426	56.06113	305.42218	210.81131	36.75536	261.60410	211.44330	-1.14037	324.52927	218.90593	-12.82252	277.61493	214.75053	-14.01995	132.69479	197.36095	-27.91414	139.85313	282.49707	27.33346	89.67117	247.92938	-166.85086	152.37540	268.73401	-174.14297	169.49609	227.79898	-153.23808	143.77814	180.67873
454	3.77500	354.71301	975.33588	425.84586	158.97789	922.30933	473.33185	313.26514	580.79211	505.84369	315.01547	537.91699	498.70859	251.10709	566.30389	488.29413	265.84247	526.29718	484.66135	317.00317	462.18320	480.97510	320.62112	458.29678	370.28979	401.30905	387.76263	495.75317	407.24841	341.70261	501.14520	340.83249	371.82166	488.22284	354.60739	332.66559	490.59012	472.31995	90.91163	455.66980	452.54593	108.52396	372.60730	540.46295	87.78713	405.66403	361.03003	40.33232	471.37567	321.22314	59.20048	414.04355	346.03607	55.87745	375.67276	367.97559	994.85931	296.98477	200.85153	973.31311	222.48792	177.40260	583.15881	178.48566	157.60263	550.28461	179.25783	126.15458	611.63934	187.94821	109.26220	570.93646	182.63853	86.89320	456.12161	200.93272	82.27776	456.03073	290.08005	45.32674	304.42981	211.12051	25.71502	260.76791	211.89729	-11.80677	324.08688	219.38792	-23.85336	276.77991	215.06177	-25.27608	132.20938	198.06166	-39.72485	139.54907	283.13245	15.23557	89.23821	248.62849	-178.60966	152.87817	269.18970	-185.55505	169.99007	228.37534	-165.03796	144.02733	181.20312
455	3.78333	346.31305	973.63293	425.21063	150.51936	920.93512	472.40717	307.61578	580.46814	505.05457	309.81500	537.59399	498.12949	245.53862	565.33026	488.17123	260.64026	525.47803	484.60913	312.10471	461.64380	480.71207	315.28366	457.55774	370.11746	397.19791	388.11514	495.50320	403.20547	342.01682	501.16342	336.89130	371.56171	488.10889	351.10651	332.56815	490.48935	471.52823	91.83491	455.82968	451.57242	109.05377	372.79852	539.73700	89.29332	405.92426	360.81772	40.14247	471.54202	320.76694	58.60900	414.18854	345.69125	55.79187	375.71030	359.63397	992.94824	296.30228	191.50056	971.90253	221.47145	168.33081	581.50031	178.34853	148.29411	548.65204	179.07341	117.11661	610.16180	187.69049	99.52174	569.49664	182.82648	77.38558	454.75616	201.07132	72.77438	454.74228	290.19540	35.06015	303.17236	211.43634	15.32101	259.65573	212.30814	-21.75898	322.68918	219.74040	-34.19296	276.31793	215.58386	-36.44743	131.37740	198.72908	-50.72340	139.16971	283.51993	3.74669	88.16074	249.39903	-189.56772	152.86403	270.01306	-196.41919	170.04274	229.35023	-176.39363	144.21982	181.84401
456	3.79167	337.74661	971.97705	424.29111	141.94762	919.67426	471.58301	301.74490	580.21436	504.36237	304.41135	537.31079	497.66742	239.80922	564.49622	488.11954	255.19049	524.69391	484.60721	307.26410	461.25467	480.60342	309.79529	456.81406	370.05261	392.97943	388.58609	495.31815	400.06522	342.74948	500.82788	332.87946	371.39688	488.07785	347.59006	332.49881	490.47925	470.62112	92.82770	456.00653	450.80890	110.15549	372.99588	538.87408	91.02010	406.26776	360.47180	39.89435	471.77563	320.51410	58.14051	414.57123	343.74194	54.43630	376.98135	351.16534	991.16565	295.40405	183.80806	970.03241	220.19507	159.17436	579.83075	178.13136	138.99240	547.02496	178.91139	107.85062	608.48108	187.62256	90.75680	567.91382	182.52087	67.97922	453.24387	201.16141	63.63565	453.38672	290.38876	25.15825	301.81180	211.78174	5.29517	258.39087	212.73146	-31.89930	321.83224	220.18591	-44.27716	274.96234	216.08298	-47.03204	130.26041	199.43718	-60.96855	138.24348	284.26730	-6.92617	86.89690	250.06339	-199.91191	152.34711	271.12424	-206.45343	169.61720	230.88351	-186.65063	143.27243	183.15317
457	3.80000	329.18341	970.46338	423.19189	133.33539	918.33820	470.81653	295.81097	579.97003	503.74625	299.54025	537.75238	496.41977	234.10638	564.15625	487.96677	249.69563	523.91473	484.73709	302.17026	460.86081	480.52759	305.06308	455.85226	369.66479	388.66730	389.18402	495.17096	396.25763	343.42139	500.77835	328.74472	371.14087	488.03946	343.82889	332.02255	489.99933	469.66232	94.04503	456.30530	449.86990	111.16034	373.30234	537.88483	93.01894	406.70801	360.18845	39.43626	471.72076	320.14914	57.52098	414.63782	343.21631	53.84211	377.57318	342.39166	989.38000	294.27045	174.54948	968.50500	219.38306	149.78705	578.04596	177.84595	129.55177	545.20312	178.65228	97.97656	606.71277	188.06761	81.51732	566.24854	182.52071	58.82619	451.61288	201.35367	54.82051	451.77441	290.56177	15.76728	300.26941	212.22499	-4.24928	256.88922	213.20796	-41.27845	320.63431	220.98347	-53.70924	273.81183	216.83298	-56.99104	128.88451	200.18396	-70.53163	136.88007	285.07828	-16.72606	85.43665	250.62639	-209.43788	151.37151	272.46817	-216.44579	168.31670	231.69513	-196.96548	142.58768	184.17072
458	3.80833	320.65280	969.14056	421.84750	124.67763	917.05933	470.08481	289.60416	579.74200	503.14786	293.73764	537.47644	496.10342	228.06880	563.36072	488.07327	243.93530	523.36151	484.88245	296.81976	460.55670	480.53455	298.94290	455.13513	369.89325	384.05542	389.77951	495.11176	392.23804	344.13559	500.81949	324.31454	371.02487	488.13400	339.99966	332.58990	490.67114	468.51590	95.35008	456.64612	448.86057	112.20719	373.62314	536.84656	95.21583	407.18924	359.88449	39.25471	471.93121	319.65573	56.84933	414.35358	342.71271	53.76109	377.75705	333.55942	987.71344	292.83182	166.01607	966.59650	218.09657	140.79942	576.35809	177.60002	120.87521	543.45435	178.54515	89.71288	605.70709	187.24835	72.54609	564.40826	182.54602	49.98972	449.77637	201.55699	46.73288	449.87393	290.74277	6.73670	298.51120	212.62366	-13.35276	255.10431	213.77966	-50.25915	318.89960	221.61449	-62.72922	272.15106	217.58595	-66.27080	127.17294	201.00548	-79.37041	135.23404	285.97461	-25.77462	83.73257	251.23001	-218.41704	149.83107	274.04367	-225.50856	166.73930	233.30498	-206.23665	141.10878	185.73483
459	3.81667	311.71078	967.70709	420.29965	115.85420	915.85193	469.38858	283.23373	579.59344	502.62845	287.79114	537.29822	495.85715	221.80927	562.71118	488.24701	238.03476	522.66626	485.07101	291.30640	460.24127	480.63922	292.86649	454.42023	370.12918	379.47687	390.69232	495.08258	387.97549	344.86426	500.93875	319.79755	370.93777	488.25449	335.83182	332.66144	490.84433	467.35202	96.82219	457.04950	447.67380	113.40987	373.94885	535.62469	97.64071	407.71838	359.53299	39.08976	472.10129	319.38840	56.37183	414.70438	342.24606	53.76057	377.85989	324.85919	986.07593	291.19962	156.60695	964.89270	217.06798	135.67838	576.63495	178.53322	111.97441	541.59186	178.36108	80.63644	603.18427	187.54166	63.45012	562.44543	182.65295	41.39015	447.81964	201.76328	38.13811	448.00400	291.05286	-1.76992	296.49249	213.10075	-21.79632	253.18187	214.32773	-58.78056	316.96167	222.81749	-71.19356	270.16318	218.42287	-75.16411	124.71345	202.17996	-87.47448	133.22612	286.93015	-34.02581	81.75270	251.88681	-226.48399	147.80295	275.74463	-233.81100	164.62613	235.19185	-214.53809	138.68408	187.63884
460	3.82500	303.37653	966.59802	418.66235	107.09005	914.52820	468.66791	276.65714	579.45551	502.11346	281.60620	537.16559	495.61359	215.59784	562.28381	488.49747	231.74174	522.09796	485.28662	285.71481	459.99228	480.75797	286.58478	453.73135	370.45056	374.23721	391.10748	495.32416	383.54782	345.73044	501.10272	315.02661	370.81543	488.36862	331.57724	332.83688	491.10577	466.09872	98.45743	457.49622	446.46402	114.70200	374.34634	534.26978	100.26296	408.32779	359.21805	38.95438	472.31049	319.02643	55.82312	414.72781	343.42590	55.53556	376.37305	314.88617	984.44159	289.42636	146.83209	963.13770	216.01855	126.92674	574.87115	178.24992	103.17033	539.62073	178.16161	71.66737	601.17090	187.50194	54.56215	560.39703	182.66823	33.06681	445.61438	201.95493	30.42860	445.83981	291.28824	-9.81139	294.27365	213.58740	-29.65940	250.85332	214.93529	-66.64617	314.43536	222.96175	-79.13656	267.80609	219.36552	-82.59507	122.72672	202.93030	-94.79066	130.89371	287.94849	-41.65011	79.35736	252.62436	-233.92111	145.18652	277.61526	-241.60561	162.09779	236.99751	-222.45091	136.06087	189.45869
